<svg width="91" height="91" viewBox="0 0 91 91" fill="none" xmlns="http://www.w3.org/2000/svg">
<g clip-path="url(#clip0_267_31898)">
<mask id="mask0_267_31898" style="mask-type:alpha" maskUnits="userSpaceOnUse" x="0" y="0" width="91" height="91">
<circle cx="45.4258" cy="45.4258" r="45.4258" fill="#151515"/>
</mask>
<g mask="url(#mask0_267_31898)">
<g filter="url(#filter0_f_267_31898)">
<ellipse cx="557.689" cy="-127.657" rx="578.189" ry="374.122" fill="#F89881"/>
</g>
<g filter="url(#filter1_f_267_31898)">
<ellipse cx="244.367" cy="-157.475" rx="313.321" ry="248.328" fill="#9482ED"/>
</g>
<path d="M16.1381 61.112L17.0501 59.516C17.4021 59.804 17.8101 60.04 18.2741 60.224C18.7381 60.4 19.1901 60.488 19.6301 60.488C19.8941 60.488 20.1141 60.456 20.2901 60.392C20.4741 60.328 20.6141 60.244 20.7101 60.14C20.8061 60.036 20.8541 59.92 20.8541 59.792C20.8541 59.68 20.8101 59.564 20.7221 59.444C20.6421 59.324 20.4901 59.2 20.2661 59.072C20.0501 58.944 19.7301 58.812 19.3061 58.676C18.6501 58.46 18.1181 58.216 17.7101 57.944C17.3101 57.664 17.0181 57.36 16.8341 57.032C16.6501 56.704 16.5581 56.36 16.5581 56C16.5581 55.56 16.6741 55.156 16.9061 54.788C17.1461 54.42 17.4981 54.128 17.9621 53.912C18.4261 53.688 18.9981 53.576 19.6781 53.576C20.2221 53.576 20.7621 53.664 21.2981 53.84C21.8421 54.008 22.2981 54.22 22.6661 54.476L21.8141 56C21.4861 55.768 21.1261 55.58 20.7341 55.436C20.3421 55.284 19.9381 55.208 19.5221 55.208C19.1861 55.208 18.9301 55.272 18.7541 55.4C18.5781 55.528 18.4901 55.676 18.4901 55.844C18.4901 55.964 18.5341 56.08 18.6221 56.192C18.7181 56.304 18.8741 56.416 19.0901 56.528C19.3141 56.64 19.6141 56.76 19.9901 56.888C20.6701 57.112 21.2181 57.364 21.6341 57.644C22.0501 57.916 22.3541 58.22 22.5461 58.556C22.7381 58.884 22.8341 59.252 22.8341 59.66C22.8341 60.1 22.7101 60.508 22.4621 60.884C22.2141 61.26 21.8381 61.564 21.3341 61.796C20.8301 62.028 20.1941 62.144 19.4261 62.144C19.0501 62.144 18.6741 62.1 18.2981 62.012C17.9221 61.932 17.5541 61.816 17.1941 61.664C16.8341 61.512 16.4821 61.328 16.1381 61.112ZM24.0665 58.976C24.0665 58.28 24.2065 57.676 24.4865 57.164C24.7665 56.652 25.1505 56.256 25.6385 55.976C26.1345 55.696 26.7025 55.556 27.3425 55.556C27.7105 55.556 28.0505 55.604 28.3625 55.7C28.6745 55.796 28.9625 55.916 29.2265 56.06L28.5785 57.488C28.4265 57.376 28.2465 57.288 28.0385 57.224C27.8305 57.152 27.6145 57.116 27.3905 57.116C27.1105 57.116 26.8545 57.18 26.6225 57.308C26.3985 57.436 26.2185 57.632 26.0825 57.896C25.9545 58.16 25.8905 58.5 25.8905 58.916C25.8905 59.276 25.9585 59.58 26.0945 59.828C26.2305 60.068 26.4145 60.252 26.6465 60.38C26.8865 60.5 27.1585 60.56 27.4625 60.56C27.6705 60.56 27.8785 60.528 28.0865 60.464C28.2945 60.4 28.4745 60.316 28.6265 60.212L29.2745 61.64C29.0105 61.784 28.7025 61.904 28.3505 62C28.0065 62.096 27.6225 62.144 27.1985 62.144C26.5745 62.144 26.0265 62.016 25.5545 61.76C25.0825 61.496 24.7145 61.128 24.4505 60.656C24.1945 60.176 24.0665 59.616 24.0665 58.976ZM30.5353 55.7H32.2873L32.5153 56.96V62H30.7153V57.2C30.7153 57.032 30.7073 56.884 30.6913 56.756C30.6833 56.62 30.6633 56.464 30.6313 56.288L30.5353 55.7ZM32.3353 58.064V56.936C32.5833 56.504 32.8913 56.168 33.2593 55.928C33.6273 55.68 34.0273 55.556 34.4593 55.556V57.332C33.9873 57.332 33.5913 57.384 33.2713 57.488C32.9593 57.592 32.6473 57.784 32.3353 58.064ZM35.4215 58.856C35.4215 58.176 35.5535 57.592 35.8175 57.104C36.0815 56.608 36.4455 56.228 36.9095 55.964C37.3815 55.692 37.9175 55.556 38.5175 55.556C39.1255 55.556 39.6615 55.692 40.1255 55.964C40.5895 56.228 40.9535 56.608 41.2175 57.104C41.4815 57.592 41.6135 58.176 41.6135 58.856C41.6135 59.528 41.4815 60.112 41.2175 60.608C40.9535 61.096 40.5895 61.476 40.1255 61.748C39.6615 62.012 39.1255 62.144 38.5175 62.144C37.9175 62.144 37.3815 62.012 36.9095 61.748C36.4455 61.476 36.0815 61.096 35.8175 60.608C35.5535 60.112 35.4215 59.528 35.4215 58.856ZM37.2455 58.856C37.2455 59.28 37.2975 59.628 37.4015 59.9C37.5055 60.172 37.6535 60.372 37.8455 60.5C38.0375 60.628 38.2615 60.692 38.5175 60.692C38.7735 60.692 38.9975 60.628 39.1895 60.5C39.3815 60.372 39.5295 60.172 39.6335 59.9C39.7375 59.628 39.7895 59.28 39.7895 58.856C39.7895 58.432 39.7375 58.084 39.6335 57.812C39.5295 57.54 39.3815 57.34 39.1895 57.212C38.9975 57.076 38.7735 57.008 38.5175 57.008C38.2615 57.008 38.0375 57.076 37.8455 57.212C37.6535 57.34 37.5055 57.54 37.4015 57.812C37.2975 58.084 37.2455 58.432 37.2455 58.856ZM43.207 62V53.42L45.007 53.18V62H43.207ZM47.0447 62V53.42L48.8447 53.18V62H47.0447ZM53.9423 55.7H55.6943L55.9223 56.9V62H54.1223V57.2C54.1223 57.032 54.1143 56.884 54.0983 56.756C54.0903 56.62 54.0703 56.464 54.0383 56.288L53.9423 55.7ZM55.7423 57.884V56.696C55.9743 56.36 56.2583 56.088 56.5943 55.88C56.9383 55.664 57.3143 55.556 57.7223 55.556C58.0903 55.556 58.4263 55.648 58.7303 55.832C59.0423 56.008 59.2903 56.28 59.4743 56.648C59.6663 57.016 59.7623 57.476 59.7623 58.028V62H57.9623V58.304C57.9623 57.928 57.8783 57.652 57.7103 57.476C57.5423 57.3 57.3183 57.212 57.0383 57.212C56.8143 57.212 56.5823 57.268 56.3423 57.38C56.1103 57.492 55.9103 57.66 55.7423 57.884ZM59.4143 56.72C59.5743 56.496 59.7583 56.296 59.9663 56.12C60.1823 55.944 60.4183 55.808 60.6743 55.712C60.9383 55.608 61.2143 55.556 61.5023 55.556C61.8783 55.556 62.2263 55.648 62.5463 55.832C62.8663 56.008 63.1223 56.28 63.3143 56.648C63.5063 57.016 63.6023 57.476 63.6023 58.028V62H61.8023V58.304C61.8023 57.928 61.7183 57.652 61.5503 57.476C61.3823 57.3 61.1583 57.212 60.8783 57.212C60.6543 57.212 60.4223 57.268 60.1823 57.38C59.9503 57.492 59.7503 57.66 59.5823 57.884L59.4143 56.72ZM65.1332 58.976C65.1332 58.288 65.2652 57.688 65.5292 57.176C65.7932 56.664 66.1572 56.268 66.6212 55.988C67.0852 55.7 67.6172 55.556 68.2172 55.556C68.7932 55.556 69.2892 55.684 69.7052 55.94C70.1292 56.196 70.4532 56.56 70.6772 57.032C70.9092 57.496 71.0252 58.056 71.0252 58.712C71.0252 58.848 71.0172 58.976 71.0012 59.096C70.9932 59.216 70.9812 59.312 70.9652 59.384H66.4172V58.244H69.6692L69.2972 58.736C69.2972 58.12 69.1972 57.672 68.9972 57.392C68.8052 57.104 68.5332 56.96 68.1812 56.96C67.9332 56.96 67.7092 57.024 67.5092 57.152C67.3172 57.28 67.1652 57.484 67.0532 57.764C66.9412 58.044 66.8852 58.408 66.8852 58.856C66.8852 59.28 66.9612 59.628 67.1132 59.9C67.2652 60.164 67.4732 60.36 67.7372 60.488C68.0092 60.616 68.3252 60.68 68.6852 60.68C68.9252 60.68 69.1732 60.648 69.4292 60.584C69.6932 60.512 69.9252 60.424 70.1252 60.32L70.6172 61.664C70.3292 61.792 70.0052 61.904 69.6452 62C69.2932 62.096 68.9052 62.144 68.4812 62.144C67.7772 62.144 67.1732 62.012 66.6692 61.748C66.1732 61.484 65.7932 61.116 65.5292 60.644C65.2652 60.164 65.1332 59.608 65.1332 58.976ZM72.7106 61.04C72.7106 60.72 72.8146 60.456 73.0226 60.248C73.2386 60.04 73.5106 59.936 73.8386 59.936C74.1666 59.936 74.4346 60.04 74.6426 60.248C74.8586 60.456 74.9666 60.72 74.9666 61.04C74.9666 61.352 74.8586 61.616 74.6426 61.832C74.4346 62.04 74.1666 62.144 73.8386 62.144C73.5106 62.144 73.2386 62.04 73.0226 61.832C72.8146 61.616 72.7106 61.352 72.7106 61.04ZM73.1546 58.88L72.8426 55.7V53.72H74.8346V55.7L74.5226 58.88H73.1546Z" fill="black"/>
<path d="M40.1918 21.1112C40.072 21.0396 39.9355 21.0013 39.7962 21C39.6569 20.9988 39.5197 21.0347 39.3987 21.1042C39.2776 21.1736 39.177 21.2741 39.1069 21.3954C39.0369 21.5167 39 21.6546 39 21.7949V40.2051C39 40.3454 39.0369 40.4833 39.1069 40.6046C39.177 40.7259 39.2776 40.8264 39.3987 40.8958C39.5197 40.9653 39.6569 41.0012 39.7962 41C39.9355 40.9987 40.072 40.9604 40.1918 40.8888L55.6135 31.6837C55.7313 31.6133 55.8288 31.5133 55.8966 31.3934C55.9644 31.2735 56 31.1379 56 31C56 30.8621 55.9644 30.7265 55.8966 30.6066C55.8288 30.4867 55.7313 30.3867 55.6135 30.3163L40.1918 21.1112Z" fill="black" stroke="black" stroke-width="1.5" stroke-linecap="round" stroke-linejoin="round"/>
</g>
</g>
<defs>
<filter id="filter0_f_267_31898" x="-253.453" y="-734.732" width="1622.28" height="1214.15" filterUnits="userSpaceOnUse" color-interpolation-filters="sRGB">
<feFlood flood-opacity="0" result="BackgroundImageFix"/>
<feBlend mode="normal" in="SourceGraphic" in2="BackgroundImageFix" result="shape"/>
<feGaussianBlur stdDeviation="116.476" result="effect1_foregroundBlur_267_31898"/>
</filter>
<filter id="filter1_f_267_31898" x="-208.726" y="-545.574" width="906.186" height="776.198" filterUnits="userSpaceOnUse" color-interpolation-filters="sRGB">
<feFlood flood-opacity="0" result="BackgroundImageFix"/>
<feBlend mode="normal" in="SourceGraphic" in2="BackgroundImageFix" result="shape"/>
<feGaussianBlur stdDeviation="69.8858" result="effect1_foregroundBlur_267_31898"/>
</filter>
<clipPath id="clip0_267_31898">
<rect width="90.8516" height="90.8516" fill="white"/>
</clipPath>
</defs>
</svg>
