<svg width="32" height="32" viewBox="0 0 32 32" fill="none" xmlns="http://www.w3.org/2000/svg">
<path fill-rule="evenodd" clip-rule="evenodd" d="M16 32C24.8366 32 32 24.8366 32 16C32 7.16344 24.8366 0 16 0C7.16344 0 0 7.16344 0 16C0 24.8366 7.16344 32 16 32ZM21.8394 18.2313L24.6762 16.6258C24.8424 16.5318 24.9807 16.3954 25.0769 16.2304C25.1731 16.0655 25.2238 15.8779 25.2238 15.687C25.2238 15.496 25.1731 15.3085 25.0769 15.1435C24.9807 14.9786 24.8424 14.8421 24.6762 14.7481L21.8596 13.1542L19.295 15.7029L21.8394 18.2313ZM9.625 8.07995C9.62481 7.93891 9.65236 7.79921 9.70607 7.6688L17.7894 15.7022L9.71476 23.7276C9.65757 23.5965 9.625 23.4503 9.625 23.2933V8.07995ZM20.9005 12.6106L18.5422 14.9544L10.5508 7.01154C10.7871 6.9764 11.0284 7.02206 11.2356 7.14111L20.9005 12.6106ZM10.5798 24.3646L18.5422 16.4506L20.8803 18.7742L11.2356 24.2321C11.0228 24.353 10.7955 24.3906 10.5798 24.3646Z" fill="black"/>
</svg>
